<?xml version="1.0" encoding="iso-8859-1"?>
<!-- Generator: Adobe Illustrator 19.0.0, SVG Export Plug-In . SVG Version: 6.00 Build 0)  -->
<svg version="1.1" id="Capa_1" xmlns="http://www.w3.org/2000/svg" xmlns:xlink="http://www.w3.org/1999/xlink" x="0px" y="0px"
	 viewBox="0 0 512 512" style="enable-background:new 0 0 512 512;" xml:space="preserve">
<g>
	<g>
		<path d="M497.046,403.011l-37.928-214.685c-7.851-44.435-46.3-76.686-91.422-76.686h-53.658
			c8.113-11.532,12.896-25.567,12.896-40.707C326.935,31.821,295.112,0,256,0s-70.934,31.821-70.934,70.934
			c0,15.14,4.783,29.175,12.896,40.707h-53.658c-45.122,0-83.571,32.251-91.422,76.686L14.954,403.011
			c-4.787,27.099,2.611,54.731,20.295,75.814C52.934,499.909,78.858,512,106.377,512h299.248c27.519,0,53.443-12.092,71.127-33.174
			C494.437,457.743,501.832,430.11,497.046,403.011z M256,30.227c22.446,0,40.707,18.261,40.707,40.707S278.445,111.641,256,111.641
			s-40.707-18.261-40.707-40.707S233.554,30.227,256,30.227z M453.593,459.4c-11.927,14.219-29.41,22.373-47.968,22.373H106.377
			c-18.558,0-36.042-8.154-47.968-22.373s-16.916-32.855-13.687-51.13l37.928-214.684c5.295-29.967,31.225-51.719,61.655-51.719
			h223.393c30.431,0,56.361,21.75,61.655,51.717l37.928,214.685C470.509,426.545,465.518,445.181,453.593,459.4z"/>
	</g>
</g>
<g>
	<g>
		<path d="M206.303,311.819l37.873-39.135c5.805-5.997,5.647-15.565-0.351-21.37c-5.999-5.807-15.567-5.647-21.372,0.35
			l-42.355,43.767v-33.257c0-8.347-6.767-15.114-15.114-15.114s-15.114,6.767-15.114,15.114v99.291
			c0,8.347,6.767,15.114,15.114,15.114s15.114-6.767,15.114-15.114v-33.257l42.355,43.767c2.964,3.064,6.911,4.604,10.863,4.604
			c3.784,0,7.574-1.413,10.509-4.253c5.998-5.805,6.154-15.372,0.351-21.371L206.303,311.819z"/>
	</g>
</g>
<g>
	<g>
		<path d="M347.02,300.978h-22.688c-8.347,0-15.114,6.767-15.114,15.114c0,8.347,6.767,15.114,15.114,15.114h7.325
			c-1.44,8.585-8.923,15.148-17.912,15.148c-10.014,0-18.161-8.147-18.161-18.161v-32.742c0-10.014,8.147-18.161,18.161-18.161
			c5.634,0,10.857,2.552,14.332,7.004c5.135,6.578,14.633,7.75,21.213,2.614c6.579-5.137,7.75-14.634,2.615-21.213
			c-9.242-11.84-23.151-18.631-38.159-18.631c-26.681,0-48.388,21.707-48.388,48.388v32.742c0,26.681,21.707,48.388,48.388,48.388
			s48.388-21.707,48.388-48.388v-12.1C362.134,307.745,355.367,300.978,347.02,300.978z"/>
	</g>
</g>
<g>
</g>
<g>
</g>
<g>
</g>
<g>
</g>
<g>
</g>
<g>
</g>
<g>
</g>
<g>
</g>
<g>
</g>
<g>
</g>
<g>
</g>
<g>
</g>
<g>
</g>
<g>
</g>
<g>
</g>
</svg>
